# File created by Blade
# Date/Time:  Wed Jan 21 17:47:32 2015
# Frame Rate: 120.000 fps
#------------------------------------------------------
:FULLY-SPECIFIED
:DEGREES
1720
root 18.723806 35.588930 -23.259727 -180.103467 -8.013795 -179.758213
Spine -6.012503 4.839546 -8.465731
Head -3.605964 -7.519784 11.308511
LeftShoulder -2.643375 -18.868796 0.692216
LeftArm 6.788273 44.328688 -44.810809
LeftForeArm 19.230798 -0.000000 6.044620
LeftHand 2.917603 -0.000000 -11.957796
LeftHandThumb1 -26.253704 0.000000 33.147579
RightShoulder -5.801383 -11.177243 10.937065
RightArm 20.043676 -6.770162 49.007771
RightForeArm -28.002321 0.000000 8.584469
RightHand -2.289401 -0.000000 5.462965
RightHandThumb1 -24.326973 -0.000000 -32.862282
LeftUpLeg 2.628759 3.431860 2.120602
LeftLeg 3.358216 -0.000000 -0.000000
LeftFoot -21.384041 22.405268 -12.284459
LeftToeBase 23.880424 -0.000000 -0.000000
RightUpLeg 2.897601 -19.303725 -6.096972
RightLeg 5.788343 -0.000000 -0.000000
RightFoot -22.929988 -23.982372 20.249652
RightToeBase 16.978767 -0.000000 -0.000000
1721
root 18.636486 35.603643 -23.239683 -180.092262 -7.653862 -179.717910
Spine -5.928050 5.041999 -8.262880
Head -3.843224 -7.661867 11.265925
LeftShoulder -2.564421 -19.184709 1.102529
LeftArm 6.928597 42.363594 -43.113023
LeftForeArm 17.977778 -0.000000 5.456683
LeftHand 2.712221 -0.000000 -11.435130
LeftHandThumb1 -26.253704 0.000000 33.147579
RightShoulder -6.229348 -11.092335 10.613847
RightArm 19.415193 -4.943796 47.925581
RightForeArm -27.170352 -0.000000 7.897715
RightHand -2.674423 -0.000000 5.606613
RightHandThumb1 -24.326973 -0.000000 -32.862282
LeftUpLeg 2.710455 3.920906 2.072934
LeftLeg 3.260415 -0.000000 -0.000000
LeftFoot -21.251414 22.057475 -12.162620
LeftToeBase 23.900157 -0.000000 -0.000000
RightUpLeg 2.681113 -19.390925 -6.347419
RightLeg 6.155326 -0.000000 -0.000000
RightFoot -22.402406 -22.813431 19.936137
RightToeBase 16.129919 -0.000000 -0.000000
1722
root 18.548537 35.619459 -23.219531 -180.120397 -7.304832 -179.623924
Spine -5.808709 5.216678 -7.915679
Head -4.021841 -7.719577 11.084513
LeftShoulder -2.453449 -19.557019 1.445379
LeftArm 6.891462 40.459400 -41.520609
LeftForeArm 16.428073 -0.000000 4.914945
LeftHand 2.477845 0.000000 -10.693601
LeftHandThumb1 -26.253704 0.000000 33.147579
RightShoulder -6.531266 -11.018247 10.162531
RightArm 18.740329 -2.769152 47.020954
RightForeArm -27.198553 -0.000000 7.367312
RightHand -3.188766 -0.000000 5.468780
RightHandThumb1 -24.326973 -0.000000 -32.862282
LeftUpLeg 2.793541 4.368690 2.053193
LeftLeg 3.208698 -0.000000 -0.000000
LeftFoot -21.240336 21.829761 -12.101964
LeftToeBase 24.020242 -0.000000 -0.000000
RightUpLeg 2.528699 -19.325815 -6.567556
RightLeg 6.519738 -0.000000 -0.000000
RightFoot -21.827934 -21.632008 19.741148
RightToeBase 14.739215 -0.000000 -0.000000
1723
root 18.465499 35.635223 -23.210785 -180.242313 -6.859153 -179.448369
Spine -5.635324 5.494929 -7.463249
Head -4.120961 -7.795349 10.840448
LeftShoulder -2.373346 -19.953555 1.832489
LeftArm 6.836204 38.586113 -40.026651
LeftForeArm 15.138548 0.000000 4.366814
LeftHand 2.161628 -0.000000 -9.913559
LeftHandThumb1 -26.253704 0.000000 33.147579
RightShoulder -6.783614 -10.978455 9.657231
RightArm 18.053418 -1.169868 45.880899
RightForeArm -26.621062 -0.000000 6.989340
RightHand -3.617545 -0.000000 5.628445
RightHandThumb1 -24.326973 -0.000000 -32.862282
LeftUpLeg 2.986963 4.998037 2.120578
LeftLeg 3.160211 -0.000000 -0.000000
LeftFoot -21.226428 21.665695 -11.952989
LeftToeBase 24.008052 -0.000000 -0.000000
RightUpLeg 2.501721 -19.117124 -6.715443
RightLeg 6.810125 -0.000000 -0.000000
RightFoot -21.268266 -20.527935 19.655004
RightToeBase 13.638511 -0.000000 -0.000000
